<svg t="1742525773074" class="icon" viewBox="0 0 1024 1024" version="1.1" xmlns="http://www.w3.org/2000/svg" p-id="41167" width="32" height="32"><path d="M824.888889 938.666667h-56.888889V113.777778a28.444444 28.444444 0 0 1 28.444444-28.444445h113.777778a28.444444 28.444444 0 0 1 28.444445 28.444445v711.111111a113.777778 113.777778 0 0 1-113.777778 113.777778zM426.666667 369.777778v-85.333334a28.444444 28.444444 0 0 1 28.444444-28.444444h113.777778a28.444444 28.444444 0 0 1 28.444444 28.444444v654.222223h-170.666666V369.777778zM85.333333 824.888889V455.111111a28.444444 28.444444 0 0 1 28.444445-28.444444h113.777778a28.444444 28.444444 0 0 1 28.444444 28.444444v483.555556H199.111111a113.777778 113.777778 0 0 1-113.777778-113.777778z" fill="#099268" p-id="41168"></path><path d="M824.888889 938.666667h-56.888889V113.777778a28.444444 28.444444 0 0 1 28.444444-28.444445h113.777778a28.444444 28.444444 0 0 1 28.444445 28.444445v711.111111a113.777778 113.777778 0 0 1-113.777778 113.777778zM426.666667 284.444444a28.444444 28.444444 0 0 1 28.444444-28.444444h113.777778a28.444444 28.444444 0 0 1 28.444444 28.444444v654.222223h-170.666666V284.444444zM85.333333 824.888889V455.111111a28.444444 28.444444 0 0 1 28.444445-28.444444h113.777778a28.444444 28.444444 0 0 1 28.444444 28.444444v483.555556H199.111111a113.777778 113.777778 0 0 1-113.777778-113.777778z" fill="#099268" p-id="41169"></path></svg>